<svg width="32" height="32" viewBox="0 0 32 32" fill="none" xmlns="http://www.w3.org/2000/svg">
<path d="M16.0309 4.45488C12.4467 4.45488 9.53088 7.37076 9.53088 10.9549C9.53088 14.5391 12.4468 17.4549 16.0309 17.4549C19.615 17.4549 22.5309 14.539 22.5309 10.9549C22.5309 7.37076 19.6151 4.45488 16.0309 4.45488Z" fill="#6D6D6D"/>
<path d="M16 0C9.88168 0 4.90405 4.97763 4.90405 11.0959C4.90405 13.5986 6.65962 17.7231 10.1219 23.3549C12.6533 27.4724 15.2205 30.9474 15.2461 30.9819L16 32L16.7539 30.9819C16.7795 30.9474 19.3467 27.4724 21.8781 23.3549C25.3404 17.7231 27.0959 13.5986 27.0959 11.0959C27.0959 4.97763 22.1183 0 16 0ZM16 17.2691C12.5012 17.2691 9.65487 14.4227 9.65487 10.924C9.65487 7.42525 12.5013 4.57888 16 4.57888C19.4987 4.57888 22.3451 7.42531 22.3451 10.924C22.3451 14.4227 19.4987 17.2691 16 17.2691Z" fill="#9C9C9C"/>
</svg>
